<?xml version="1.0" standalone="no"?>
<!DOCTYPE svg PUBLIC "-//W3C//DTD SVG 20010904//EN"
 "http://www.w3.org/TR/2001/REC-SVG-20010904/DTD/svg10.dtd">
<svg version="1.0" xmlns="http://www.w3.org/2000/svg"
 width="512.000000pt" height="512.000000pt" viewBox="0 0 512.000000 512.000000"
 preserveAspectRatio="xMidYMid meet">

<g transform="translate(0.000000,512.000000) scale(0.100000,-0.100000)"
fill="#000000" stroke="none">
<path d="M115 5061 c-11 -5 -29 -19 -40 -31 -20 -22 -20 -36 -20 -677 l0 -655
33 -29 32 -29 641 0 c695 0 682 -1 707 55 9 19 12 191 12 665 l0 640 -29 32
-29 33 -644 2 c-354 1 -652 -2 -663 -6z"/>
<path d="M1898 5054 c-15 -8 -32 -23 -38 -34 -6 -12 -10 -244 -10 -669 l0
-650 24 -28 24 -28 662 0 662 0 24 28 24 28 0 650 c0 427 -4 657 -10 670 -27
49 -24 49 -702 49 -539 -1 -637 -3 -660 -16z"/>
<path d="M3704 5060 c-12 -4 -31 -21 -43 -36 -21 -27 -21 -28 -21 -665 0 -473
3 -645 12 -664 25 -56 12 -55 707 -55 l641 0 32 29 33 29 0 656 0 656 -28 27
-27 28 -643 2 c-353 1 -652 -2 -663 -7z"/>
<path d="M97 3259 c-47 -27 -47 -27 -47 -699 0 -676 0 -673 49 -700 13 -6 243
-10 670 -10 l650 0 28 24 28 24 3 657 2 656 -29 30 -29 29 -654 0 c-425 -1
-659 -4 -671 -11z"/>
<path d="M1877 3242 l-27 -28 0 -654 0 -654 27 -28 27 -28 656 0 656 0 27 28
27 28 0 655 0 655 -28 27 -28 27 -655 0 -655 0 -27 -28z"/>
<path d="M3669 3241 l-29 -29 0 -652 0 -652 29 -29 29 -29 652 0 c428 0 658 4
671 10 49 27 49 24 49 700 0 676 0 673 -49 700 -13 6 -243 10 -671 10 l-652 0
-29 -29z"/>
<path d="M88 1451 l-33 -29 0 -656 0 -656 28 -27 27 -28 656 0 656 0 29 33 29
32 0 641 c0 695 1 682 -55 707 -19 9 -191 12 -665 12 l-640 0 -32 -29z"/>
<path d="M1879 1451 l-29 -29 0 -652 c0 -428 4 -658 10 -671 27 -49 24 -49
700 -49 676 0 673 0 700 49 6 13 10 243 10 671 l0 652 -29 29 -29 29 -652 0
-652 0 -29 -29z"/>
<path d="M3691 1466 c-51 -28 -50 -15 -51 -703 l0 -643 29 -32 29 -33 656 0
656 0 27 28 28 27 0 656 0 656 -33 29 -32 29 -643 0 c-514 -1 -647 -3 -666
-14z"/>
</g>
</svg>
