<?xml version="1.0" standalone="no"?>
<!DOCTYPE svg PUBLIC "-//W3C//DTD SVG 20010904//EN"
 "http://www.w3.org/TR/2001/REC-SVG-20010904/DTD/svg10.dtd">
<svg version="1.0" xmlns="http://www.w3.org/2000/svg"
 width="512.000000pt" height="512.000000pt" viewBox="0 0 512.000000 512.000000"
 preserveAspectRatio="xMidYMid meet">

<g transform="translate(0.000000,512.000000) scale(0.100000,-0.100000)"
fill="#000000" stroke="none">
<path d="M115 5061 c-11 -5 -29 -19 -40 -31 -19 -21 -20 -38 -23 -439 -3 -371
-1 -419 13 -447 9 -18 28 -37 41 -43 17 -7 157 -11 445 -11 l421 0 29 29 29
29 0 421 c0 304 -3 427 -12 446 -25 54 -32 55 -475 54 -224 0 -417 -4 -428 -8z"/>
<path d="M1455 5058 c-56 -30 -55 -17 -55 -481 l0 -429 29 -29 29 -29 426 0
426 0 32 29 33 29 3 419 c2 404 2 419 -18 451 -11 18 -32 37 -46 42 -37 14
-833 13 -859 -2z"/>
<path d="M2803 5060 c-13 -5 -32 -24 -43 -42 -20 -32 -20 -47 -18 -451 l3
-419 33 -29 32 -29 426 0 426 0 29 29 29 29 0 429 c0 466 1 452 -57 482 -27
14 -826 14 -860 1z"/>
<path d="M4138 5053 c-14 -9 -31 -27 -37 -40 -7 -16 -11 -166 -11 -444 l0
-421 29 -29 29 -29 421 0 c288 0 428 4 445 11 13 6 32 25 41 43 14 28 16 76
13 448 l-3 418 -28 27 -27 28 -423 2 c-380 3 -425 1 -449 -14z"/>
<path d="M94 3702 c-12 -9 -27 -27 -33 -39 -14 -28 -16 -820 -1 -857 5 -14 24
-35 42 -46 32 -20 47 -20 451 -18 l419 3 29 33 29 32 0 426 0 426 -29 29 -29
29 -429 0 c-390 0 -430 -2 -449 -18z"/>
<path d="M1429 3691 l-29 -29 0 -429 c0 -422 0 -430 21 -452 11 -12 32 -26 46
-32 14 -5 199 -9 424 -9 439 0 443 1 474 60 13 24 15 91 15 429 0 225 -4 410
-9 424 -6 14 -20 35 -32 46 -22 21 -30 21 -452 21 l-429 0 -29 -29z"/>
<path d="M2781 3699 c-12 -11 -26 -32 -32 -46 -5 -14 -9 -199 -9 -424 0 -338
2 -405 15 -429 31 -59 35 -60 475 -60 437 0 454 2 479 56 8 17 11 152 11 445
l0 421 -29 29 -29 29 -429 0 c-422 0 -430 0 -452 -21z"/>
<path d="M4119 3691 l-29 -29 0 -426 0 -426 29 -32 29 -33 419 -3 c404 -2 419
-2 451 18 18 11 37 32 42 46 15 37 13 829 -1 857 -30 58 -16 57 -482 57 l-429
0 -29 -29z"/>
<path d="M102 2360 c-18 -11 -37 -32 -42 -46 -15 -37 -13 -829 1 -857 30 -58
16 -57 482 -57 l429 0 29 29 29 29 0 426 0 426 -29 32 -29 33 -419 3 c-404 2
-419 2 -451 -18z"/>
<path d="M1456 2365 c-57 -30 -55 -15 -56 -478 l0 -429 29 -29 29 -29 421 0
c293 0 428 3 445 11 54 25 56 42 56 479 0 440 -1 444 -60 475 -43 22 -821 22
-864 0z"/>
<path d="M2798 2364 c-57 -31 -58 -36 -58 -474 0 -437 2 -454 56 -479 17 -8
152 -11 445 -11 l421 0 29 29 29 29 0 421 c0 293 -3 428 -11 445 -25 54 -42
56 -481 56 -337 -1 -407 -3 -430 -16z"/>
<path d="M4154 2370 c-12 -4 -31 -21 -43 -36 -21 -26 -21 -33 -21 -451 l0
-425 29 -29 29 -29 430 0 429 0 26 24 c14 13 29 35 32 48 3 12 4 209 3 435
l-3 413 -28 27 -27 28 -418 2 c-229 1 -427 -2 -438 -7z"/>
<path d="M103 1018 c-11 -5 -28 -24 -38 -42 -14 -28 -16 -75 -13 -448 l3 -418
28 -27 27 -28 417 -3 c302 -2 425 1 446 9 56 24 57 29 57 489 l0 422 -29 29
-29 29 -424 -1 c-271 0 -431 -4 -445 -11z"/>
<path d="M1429 1001 l-29 -29 0 -429 c0 -466 -1 -452 57 -482 28 -14 820 -16
857 -1 14 5 35 24 46 42 20 32 20 47 18 451 l-3 419 -33 29 -32 29 -426 0
-426 0 -29 -29z"/>
<path d="M2778 1001 l-33 -29 -3 -419 c-2 -404 -2 -419 18 -451 11 -18 32 -37
46 -42 37 -15 829 -13 857 1 58 30 57 16 57 482 l0 429 -29 29 -29 29 -426 0
-426 0 -32 -29z"/>
<path d="M4119 1001 l-29 -29 0 -421 c0 -288 4 -428 11 -445 6 -13 25 -32 43
-41 28 -14 76 -16 448 -13 l418 3 27 28 28 27 3 418 c3 372 1 420 -13 448 -9
18 -28 37 -41 43 -17 7 -157 11 -445 11 l-421 0 -29 -29z"/>
</g>
</svg>
