<?xml version="1.0" standalone="no"?>
<!DOCTYPE svg PUBLIC "-//W3C//DTD SVG 20010904//EN"
 "http://www.w3.org/TR/2001/REC-SVG-20010904/DTD/svg10.dtd">
<svg version="1.0" xmlns="http://www.w3.org/2000/svg"
 width="512.000000pt" height="512.000000pt" viewBox="0 0 512.000000 512.000000"
 preserveAspectRatio="xMidYMid meet">

<g transform="translate(0.000000,512.000000) scale(0.100000,-0.100000)"
fill="#000000" stroke="none">
<path d="M115 5061 c-11 -5 -29 -19 -40 -31 -19 -21 -20 -38 -23 -298 -2 -153
0 -287 3 -300 3 -13 18 -35 32 -48 l26 -24 294 0 295 0 29 29 29 29 0 294 c0
317 -1 318 -57 347 -26 13 -556 15 -588 2z"/>
<path d="M1178 5053 c-14 -9 -31 -27 -37 -40 -7 -15 -11 -127 -11 -309 l0
-286 29 -29 29 -29 294 0 c262 0 295 2 314 18 42 33 44 50 44 341 l0 281 -29
32 -29 33 -289 2 c-255 3 -291 1 -315 -14z"/>
<path d="M2253 5050 c-50 -30 -55 -62 -51 -363 l3 -269 33 -29 32 -29 290 0
290 0 32 29 33 29 3 269 c4 301 -1 333 -51 363 -30 19 -52 20 -307 20 -255 0
-277 -1 -307 -20z"/>
<path d="M3344 5060 c-12 -4 -31 -21 -43 -36 -20 -26 -21 -36 -21 -306 0 -290
2 -307 44 -340 19 -16 52 -18 314 -18 l294 0 29 29 29 29 0 286 c0 200 -4 293
-12 311 -23 52 -43 55 -340 54 -150 0 -283 -4 -294 -9z"/>
<path d="M4415 5059 c-55 -31 -55 -31 -55 -347 l0 -294 29 -29 29 -29 295 0
294 0 26 24 c14 13 29 35 32 48 3 13 5 148 3 300 l-3 278 -28 27 -27 28 -288
2 c-198 2 -293 -1 -307 -8z"/>
<path d="M103 3978 c-11 -5 -29 -24 -38 -42 -14 -27 -16 -65 -13 -314 l3 -284
33 -29 32 -29 281 0 c291 0 308 2 341 44 16 19 18 52 18 314 l0 294 -29 29
-29 29 -289 -1 c-178 0 -296 -4 -310 -11z"/>
<path d="M1159 3961 l-29 -29 0 -287 c0 -310 3 -329 55 -353 18 -8 110 -12
306 -12 l281 0 34 34 34 34 0 281 c0 196 -4 288 -12 306 -24 52 -43 55 -353
55 l-287 0 -29 -29z"/>
<path d="M2238 3961 l-33 -29 -3 -279 c-2 -250 -1 -281 15 -313 30 -58 40 -60
343 -60 303 0 313 2 343 60 16 32 17 63 15 313 l-3 279 -33 29 -32 29 -290 0
-290 0 -32 -29z"/>
<path d="M3331 3976 c-48 -27 -50 -42 -51 -344 l0 -284 34 -34 34 -34 281 0
c306 0 326 3 349 55 8 18 12 111 12 311 l0 286 -29 29 -29 29 -289 0 c-220 -1
-294 -4 -312 -14z"/>
<path d="M4389 3961 l-29 -29 0 -295 0 -294 24 -26 c13 -14 35 -29 48 -32 13
-3 148 -5 300 -3 l278 3 27 28 28 27 3 283 c4 308 0 331 -54 356 -17 7 -121
11 -310 11 l-286 0 -29 -29z"/>
<path d="M113 2906 c-60 -27 -63 -45 -63 -348 0 -253 2 -275 20 -305 30 -50
62 -55 363 -51 l269 3 29 33 29 32 0 290 0 290 -29 32 -29 33 -279 2 c-222 2
-284 0 -310 -11z"/>
<path d="M1203 2913 c-12 -2 -34 -18 -48 -34 l-25 -31 0 -289 0 -289 29 -32
29 -33 279 -3 c250 -2 281 -1 313 15 58 30 60 40 60 343 0 303 -2 313 -60 342
-31 16 -66 18 -295 17 -143 -1 -270 -4 -282 -6z"/>
<path d="M2273 2909 c-66 -19 -68 -31 -68 -345 0 -218 3 -287 14 -306 26 -50
43 -53 341 -53 298 0 315 3 341 53 20 36 20 567 1 603 -28 52 -37 54 -327 56
-151 1 -284 -2 -302 -8z"/>
<path d="M3340 2903 c-58 -30 -60 -40 -60 -343 0 -303 2 -313 60 -342 31 -16
67 -18 293 -18 276 0 308 5 341 51 14 20 16 61 16 311 l0 288 -29 32 -29 33
-279 3 c-250 2 -281 1 -313 -15z"/>
<path d="M4433 2913 c-12 -2 -34 -18 -48 -34 l-25 -31 0 -289 0 -289 29 -32
29 -33 269 -3 c301 -4 333 1 363 51 18 30 20 52 20 305 0 228 -3 278 -16 303
-28 54 -55 59 -341 58 -142 -1 -268 -4 -280 -6z"/>
<path d="M88 1811 l-33 -29 -3 -284 c-4 -309 0 -332 54 -357 17 -7 121 -11
310 -11 l286 0 29 29 29 29 0 294 c0 262 -2 295 -18 314 -33 42 -50 44 -341
44 l-281 0 -32 -29z"/>
<path d="M1181 1826 c-48 -27 -50 -41 -51 -349 l0 -289 29 -29 29 -29 287 0
c310 0 329 3 353 55 8 18 12 110 12 306 l0 281 -34 34 -34 34 -283 0 c-217 -1
-290 -4 -308 -14z"/>
<path d="M2260 1827 c-14 -7 -33 -28 -43 -47 -16 -32 -17 -63 -15 -313 l3
-279 33 -29 32 -29 288 0 c250 0 291 2 311 16 46 33 51 65 51 341 0 282 -5
313 -60 340 -36 18 -564 18 -600 0z"/>
<path d="M3314 1806 l-34 -34 0 -281 c0 -306 3 -326 55 -349 18 -8 111 -12
311 -12 l286 0 29 29 29 29 0 286 c0 200 -4 293 -12 311 -23 52 -43 55 -349
55 l-281 0 -34 -34z"/>
<path d="M4415 1828 c-54 -30 -55 -30 -55 -346 l0 -294 29 -29 29 -29 286 0
c189 0 293 4 310 11 54 25 58 48 54 357 l-3 284 -33 29 -32 29 -283 0 c-186
-1 -289 -4 -302 -12z"/>
<path d="M87 736 c-14 -13 -29 -35 -32 -48 -3 -13 -5 -148 -3 -300 l3 -278 28
-27 27 -28 278 -3 c152 -2 287 0 300 3 13 3 35 18 48 32 l24 26 0 294 0 295
-29 29 -29 29 -295 0 -294 0 -26 -24z"/>
<path d="M1159 731 l-29 -29 0 -286 c0 -189 4 -293 11 -310 25 -54 48 -58 356
-54 l283 3 27 28 28 27 3 278 c2 152 0 287 -3 300 -3 13 -18 35 -32 48 l-26
24 -294 0 -295 0 -29 -29z"/>
<path d="M2238 731 l-33 -29 -3 -269 c-4 -301 1 -333 51 -363 30 -19 52 -20
307 -20 255 0 277 1 307 20 50 30 55 62 51 363 l-3 269 -33 29 -32 29 -290 0
-290 0 -32 -29z"/>
<path d="M3324 742 c-42 -33 -44 -50 -44 -341 l0 -281 29 -32 29 -33 283 -3
c201 -2 291 1 311 9 55 23 58 41 58 354 l0 287 -29 29 -29 29 -294 0 c-262 0
-295 -2 -314 -18z"/>
<path d="M4389 731 l-29 -29 0 -295 0 -294 24 -26 c13 -14 35 -29 48 -32 13
-3 148 -5 300 -3 l278 3 27 28 28 27 3 278 c2 152 0 287 -3 300 -3 13 -18 35
-32 48 l-26 24 -294 0 -295 0 -29 -29z"/>
</g>
</svg>
